<svg xmlns="http://www.w3.org/2000/svg" viewBox="0 0 512 512">
  <defs>
    <linearGradient id="bg" x1="0" y1="0" x2="0" y2="1">
      <stop offset="0" stop-color="#1f232c"/><stop offset="1" stop-color="#0b0d11"/>
    </linearGradient>
    <linearGradient id="g" x1="0" y1="0" x2="1" y2="0">
      <stop offset="0" stop-color="#17b850"/><stop offset=".45" stop-color="#3ff07e"/><stop offset="1" stop-color="#15a548"/>
    </linearGradient>
  </defs>
  <rect width="512" height="512" fill="url(#bg)"/>
  <!-- sound waves -->
  <g fill="none" stroke="#1ed760" stroke-width="18" stroke-linecap="round">
    <path d="M196 132a90 90 0 0 0 0 112" opacity=".9"/>
    <path d="M316 132a90 90 0 0 1 0 112" opacity=".9"/>
    <path d="M156 100a150 150 0 0 0 0 176" opacity=".45"/>
    <path d="M356 100a150 150 0 0 1 0 176" opacity=".45"/>
  </g>
  <!-- cable -->
  <path d="M256 440 V530" stroke="#1ed760" stroke-width="34"/>
  <!-- plug pin (TRS) -->
  <path d="M234 300 V150 a22 22 0 0 1 44 0 V300 Z" fill="url(#g)"/>
  <rect x="234" y="168" width="44" height="9" fill="#0f1115"/>
  <rect x="234" y="212" width="44" height="9" fill="#0f1115"/>
  <!-- collar + body -->
  <rect x="214" y="296" width="84" height="26" rx="6" fill="#d9fbe5"/>
  <path d="M196 322 H316 V410 Q316 446 280 446 H232 Q196 446 196 410 Z" fill="url(#g)"/>
  <g stroke="#0f6b30" stroke-width="6" stroke-linecap="round" opacity=".6">
    <path d="M222 350 V418"/><path d="M244 350 V418"/><path d="M268 350 V418"/><path d="M290 350 V418"/>
  </g>
</svg>
